<?xml version="1.0" encoding="utf-8"?>
<!-- Generator: Adobe Illustrator 26.0.1, SVG Export Plug-In . SVG Version: 6.00 Build 0)  -->
<svg version="1.1" id="Layer_1" xmlns="http://www.w3.org/2000/svg" xmlns:xlink="http://www.w3.org/1999/xlink" x="0px" y="0px"
	 viewBox="0 0 1920 1080" style="enable-background:new 0 0 1920 1080;" xml:space="preserve">
<style type="text/css">
	.st0{fill:none;stroke:#4A64FF;stroke-width:6;stroke-miterlimit:10;}
</style>
<image style="overflow:visible;enable-background:new    ;" width="1920" height="1080" xlink:href="Sector A.png"  transform="matrix(0.999 0 0 0.996 1.8567 2.1694)">
</image>
<path class="st0" d="M966.1,163v192.7v56.5V471c0,1.7-4.5,34.7-4.8,36.3l-8.1,33.6c-0.5,2.5-1.3,4.9-2.4,7.1l-4.2,9.8
	c-0.1,0.1-0.1,0.3-0.2,0.4l-12.6,23.2l-19.1,35.7l-1.4,2.6c-0.9,1.5-1.3,3.3-1.4,5v1.2c-0.1,2,2.2,3.3,3.9,2.3l1-0.6
	c0.9-0.6,1.7-1.3,2.2-2.3l10.3-17.9c1.2-2,2.9-3.7,5.1-4.7l10.1-4.7c1.2-0.6,2.5-0.7,3.8-0.5l3.8,0.7c2,0.4,3.9,1.1,5.7,2.2
	l25.6,16.4l26.9,14l12,4.2c1.1,0.4,2.1,0.9,3,1.6l8.7,6.3c0.8,0.6,1.5,1.3,2,2.1l11.6,18.6c0.4,0.6,0.8,1.1,1.3,1.7l23.1,25.4"/>
</svg>
